<svg width="21" height="20" viewBox="0 0 21 20" fill="none" xmlns="http://www.w3.org/2000/svg">
<path d="M0.295057 10.7072L9.27306 19.7072C9.66206 20.0972 10.2981 20.0982 10.6871 19.7092L19.7081 10.7092C19.8012 10.6163 19.8751 10.5059 19.9255 10.3844C19.9759 10.263 20.0018 10.1327 20.0018 10.0012C20.0018 9.86965 19.9759 9.7394 19.9255 9.61791C19.8751 9.49642 19.8012 9.38607 19.7081 9.29318L10.6871 0.293179C10.5941 0.200365 10.4838 0.126782 10.3624 0.0766433C10.2411 0.0265041 10.111 0.0007918 9.97964 0.000977562C9.84831 0.00116332 9.7183 0.0272435 9.59706 0.0777259C9.47581 0.128208 9.36571 0.202102 9.27306 0.295179L0.295057 9.29518C0.202292 9.38786 0.128701 9.49792 0.0784929 9.61906C0.0282843 9.7402 0.00244141 9.87005 0.00244141 10.0012C0.00244141 10.1323 0.0282843 10.2622 0.0784929 10.3833C0.128701 10.5044 0.202292 10.6145 0.295057 10.7072ZM7.00206 8.00118H12.0021V6.00118L15.0021 9.00118L12.0021 12.0012V10.0012H9.00206V14.0012H7.00206V8.00118Z" fill="#1CBBB4"/>
</svg>
