<svg width="18" height="18" viewBox="0 0 18 18" fill="none" xmlns="http://www.w3.org/2000/svg">
<path d="M11.0143 8.63398L4.78799 7.53711V15.6422C4.78807 15.7302 4.80548 15.8174 4.83925 15.8987C4.87301 15.98 4.92246 16.0539 4.98478 16.1161C5.04709 16.1783 5.12105 16.2277 5.20242 16.2613C5.2838 16.2949 5.37101 16.3122 5.45906 16.3121H16.2028C16.291 16.3123 16.3783 16.2952 16.4598 16.2616C16.5413 16.228 16.6154 16.1787 16.6778 16.1165C16.7402 16.0543 16.7898 15.9804 16.8236 15.899C16.8575 15.8176 16.8749 15.7303 16.875 15.6422V12.6559L11.0143 8.63398Z" fill="#185C37"/>
<path d="M11.0143 1.6875H5.45906C5.37101 1.68743 5.2838 1.7047 5.20242 1.73832C5.12105 1.77195 5.04709 1.82128 4.98478 1.88349C4.92246 1.9457 4.87301 2.01957 4.83925 2.10089C4.80548 2.18221 4.78807 2.26939 4.78799 2.35744V5.34375L11.0143 9L14.3111 10.0969L16.875 9V5.34375L11.0143 1.6875Z" fill="#21A366"/>
<path d="M4.78799 5.34375H11.0143V9H4.78799V5.34375Z" fill="#107C41"/>
<path opacity="0.1" d="M9.24412 4.6123H4.78799V13.7529H9.24412C9.42168 13.752 9.59175 13.6812 9.71746 13.5558C9.84317 13.4304 9.91442 13.2606 9.91575 13.083V5.28224C9.91442 5.10468 9.84317 4.9348 9.71746 4.8094C9.59175 4.684 9.42168 4.61319 9.24412 4.6123Z" fill="black"/>
<path opacity="0.2" d="M8.87793 4.97852H4.78799V14.1191H8.87793C9.05549 14.1183 9.22556 14.0474 9.35127 13.922C9.47699 13.7966 9.54823 13.6268 9.54956 13.4492V5.64845C9.54823 5.47089 9.47699 5.30101 9.35127 5.17561C9.22556 5.05021 9.05549 4.9794 8.87793 4.97852Z" fill="black"/>
<path opacity="0.2" d="M8.87793 4.97852H4.78799V13.3879H8.87793C9.05549 13.387 9.22556 13.3162 9.35127 13.1908C9.47699 13.0654 9.54823 12.8955 9.54956 12.718V5.64845C9.54823 5.47089 9.47699 5.30101 9.35127 5.17561C9.22556 5.05021 9.05549 4.9794 8.87793 4.97852Z" fill="black"/>
<path opacity="0.2" d="M8.51174 4.97852H4.78799V13.3879H8.51174C8.68931 13.387 8.85937 13.3162 8.98508 13.1908C9.1108 13.0654 9.18204 12.8955 9.18337 12.718V5.64845C9.18204 5.47089 9.1108 5.30101 8.98508 5.17561C8.85937 5.05021 8.68931 4.9794 8.51174 4.97852Z" fill="black"/>
<path d="M1.79663 4.97852H8.51175C8.68963 4.97837 8.86029 5.04885 8.98623 5.17447C9.11217 5.30009 9.18308 5.47057 9.18338 5.64845V12.3523C9.18308 12.5302 9.11217 12.7007 8.98623 12.8263C8.86029 12.9519 8.68963 13.0224 8.51175 13.0223H1.79663C1.70853 13.0224 1.62126 13.0052 1.53982 12.9716C1.45838 12.938 1.38435 12.8887 1.32198 12.8265C1.25961 12.7643 1.21011 12.6904 1.17631 12.609C1.14251 12.5276 1.12507 12.4404 1.125 12.3523V5.64845C1.12507 5.56036 1.14251 5.47313 1.17631 5.39178C1.21011 5.31042 1.25961 5.23652 1.32198 5.1743C1.38435 5.11209 1.45838 5.06277 1.53982 5.02918C1.62126 4.99558 1.70853 4.97837 1.79663 4.97852Z" fill="url(#paint0_linear_647_3742)"/>
<path d="M3.20625 11.1784L4.61869 8.99366L3.32494 6.82129H4.36388L5.06982 8.21235C5.13507 8.34398 5.18232 8.44185 5.20369 8.5071H5.21325C5.25938 8.40135 5.30832 8.29954 5.3595 8.19998L6.11438 6.82354H7.07063L5.74369 8.98354L7.10438 11.1801H6.08682L5.27119 9.65516C5.23332 9.5896 5.20114 9.52091 5.175 9.44985H5.1615C5.13772 9.51909 5.10601 9.58534 5.067 9.64729L4.22719 11.1784H3.20625Z" fill="white"/>
<path d="M16.2034 1.6875H11.0143V5.34375H16.875V2.35744C16.8749 2.26934 16.8575 2.18212 16.8237 2.10076C16.7899 2.0194 16.7404 1.94551 16.678 1.88329C16.6156 1.82107 16.5416 1.77176 16.4602 1.73816C16.3787 1.70457 16.2915 1.68735 16.2034 1.6875Z" fill="#33C481"/>
<path d="M11.0143 9H16.875V12.6562H11.0143V9Z" fill="#107C41"/>
<defs>
<linearGradient id="paint0_linear_647_3742" x1="2.52788" y1="4.45202" x2="7.7805" y2="13.5488" gradientUnits="userSpaceOnUse">
<stop stop-color="#18884F"/>
<stop offset="0.5" stop-color="#117E43"/>
<stop offset="1" stop-color="#0B6631"/>
</linearGradient>
</defs>
</svg>
