<svg width="25" height="31" viewBox="0 0 25 31" fill="none" xmlns="http://www.w3.org/2000/svg">
<path d="M15.896 7.00068C15.9439 7.02034 16.0002 6.99161 16.0002 6.94826V0.558465C16.0002 0.526208 15.9681 0.5 15.9281 0.5H13.5723C13.5323 0.5 13.5002 0.526208 13.5002 0.558465V6.94826C13.5002 6.99161 13.5564 7.02034 13.6044 7.00068L14.7502 6.53498L15.896 7.00068Z" fill="white"/>
<path d="M17.8465 0.5H17.0905V7.30308C17.0905 7.56517 16.9549 7.8081 16.7316 7.9462C16.5134 8.08178 16.2357 8.09841 15.9963 7.97946L14.822 7.3928L13.6481 7.97946C13.4118 8.09538 13.134 8.0843 12.9128 7.9462C12.69 7.8081 12.5539 7.56517 12.5539 7.30308V0.5H2.72428C1.47334 0.5 0.45575 1.51709 0.45575 2.76753V23.9338C0.45575 25.1842 1.47334 26.2013 2.72428 26.2013H17.8465C19.0975 26.2013 20.115 25.1842 20.115 23.9338V2.76753C20.115 1.51709 19.098 0.5 17.847 0.5H17.8465ZM4.23631 6.54758H8.77287C9.19069 6.54758 9.52888 6.88577 9.52888 7.30359C9.52888 7.72141 9.19069 8.0596 8.77287 8.0596H4.23631C3.81848 8.0596 3.48029 7.72141 3.48029 7.30359C3.48029 6.88577 3.81848 6.54758 4.23631 6.54758ZM11.7974 23.1778H8.77287C8.35505 23.1778 8.01686 22.8396 8.01686 22.4218C8.01686 22.004 8.35505 21.6658 8.77287 21.6658H11.7974C12.2152 21.6658 12.5534 22.004 12.5534 22.4218C12.5534 22.8396 12.2152 23.1778 11.7974 23.1778ZM11.7974 20.1543H4.23631C3.81848 20.1543 3.48029 19.8161 3.48029 19.3982C3.48029 18.9804 3.81848 18.6422 4.23631 18.6422H11.7974C12.2152 18.6422 12.5534 18.9804 12.5534 19.3982C12.5534 19.8161 12.2152 20.1543 11.7974 20.1543ZM16.334 17.1307H4.23631C3.81848 17.1307 3.48029 16.7925 3.48029 16.3747C3.48029 15.9569 3.81848 15.6187 4.23631 15.6187H16.334C16.7518 15.6187 17.09 15.9569 17.09 16.3747C17.09 16.7925 16.7518 17.1307 16.334 17.1307ZM16.334 14.1072H4.23631C3.81848 14.1072 3.48029 13.769 3.48029 13.3512C3.48029 12.9333 3.81848 12.5952 4.23631 12.5952H16.334C16.7518 12.5952 17.09 12.9333 17.09 13.3512C17.09 13.769 16.7518 14.1072 16.334 14.1072ZM16.334 11.0836H4.23631C3.81848 11.0836 3.48029 10.7455 3.48029 10.3276C3.48029 9.90981 3.81848 9.57162 4.23631 9.57162H16.334C16.7518 9.57162 17.09 9.90981 17.09 10.3276C17.09 10.7455 16.7518 11.0836 16.334 11.0836Z" fill="white"/>
<path d="M23.6516 4.02051H21.7797C21.5015 4.02051 21.2757 4.2463 21.2757 4.52451V24.0492C21.2757 25.8067 19.8509 27.2315 18.0934 27.2315H5.71049C5.43228 27.2315 5.20648 27.4573 5.20648 27.7355V29.1034C5.20648 29.8745 5.83195 30.5 6.60308 30.5H22.4652C23.6133 30.5 24.5442 29.5691 24.5442 28.421V4.9131C24.5442 4.41968 24.145 4.02051 23.6516 4.02051Z" fill="white"/>
</svg>
