<svg width="50" height="50" viewBox="0 0 50 50" fill="none" xmlns="http://www.w3.org/2000/svg">
<rect width="50" height="50" rx="25" fill="#1CBBB4" fill-opacity="0.2"/>
<path d="M24.5972 19.9605C27.3477 19.9605 29.5774 17.7308 29.5774 14.9803C29.5774 12.2297 27.3477 10 24.5972 10C21.8466 10 19.6169 12.2297 19.6169 14.9803C19.6169 17.7308 21.8466 19.9605 24.5972 19.9605Z" fill="#1CBBB4"/>
<path d="M28.2567 20.6349C27.2021 21.3198 25.9453 21.7182 24.5971 21.7182C23.2489 21.7182 21.9921 21.3198 20.9375 20.6349C19.7715 21.0802 18.6911 21.7376 17.7513 22.5813L24.5971 25.1482L31.4429 22.5807C30.5031 21.737 29.4227 21.0802 28.2567 20.6343V20.6349Z" fill="#1CBBB4"/>
<path d="M35.1436 28.1636H34.5577C34.0726 28.1636 33.6788 28.5573 33.6788 29.0424V31.3861C33.6788 31.8712 34.0726 32.265 34.5577 32.265H35.1436C36.2762 32.265 37.1943 31.3468 37.1943 30.2143C37.1943 29.0817 36.2762 28.1636 35.1436 28.1636Z" fill="#1CBBB4"/>
<path d="M14.7221 23.727C14.4854 23.891 14.3436 24.1611 14.3436 24.4494V26.4064H14.6366C16.0902 26.4064 17.2732 27.5893 17.2732 29.043V31.3866C17.2732 32.8403 16.0902 34.0232 14.6366 34.0232H14.3436V35.8753C14.3436 36.2415 14.571 36.5696 14.9137 36.6985L23.7183 40.0002V26.6976L15.5313 23.6274C15.2612 23.526 14.9588 23.5635 14.7221 23.7281V23.727Z" fill="#1CBBB4"/>
<path d="M31.921 31.3857V29.042C31.921 27.5884 33.104 26.4054 34.5576 26.4054H34.8506V24.4485C34.8506 24.1602 34.7094 23.8901 34.4721 23.726C34.2354 23.562 33.9325 23.5239 33.6629 23.6253L25.476 26.6955V39.9981L34.2805 36.6964C34.6232 36.5675 34.8506 36.24 34.8506 35.8732V34.0211H34.5576C33.104 34.0211 31.921 32.8382 31.921 31.3845V31.3857Z" fill="#1CBBB4"/>
<path d="M15.5155 31.3861V29.0424C15.5155 28.5573 15.1218 28.1636 14.6366 28.1636H14.0507C12.9181 28.1636 12 29.0817 12 30.2143C12 31.3468 12.9181 32.265 14.0507 32.265H14.6366C15.1218 32.265 15.5155 31.8712 15.5155 31.3861Z" fill="#1CBBB4"/>
</svg>
