<svg width="36" height="33" viewBox="0 0 36 33" fill="none" xmlns="http://www.w3.org/2000/svg">
<g clip-path="url(#clip0_320_4498)">
<path d="M33.5454 3.2998H2.45456C1.10072 3.30364 0.00383525 4.40052 0 5.75437V25.3909C0.00383525 26.7447 1.10072 27.8408 2.45456 27.8454H17.4113C16.981 27.2932 16.6212 26.6833 16.3466 26.0298H6.42942C5.3916 26.0298 4.48571 25.328 4.22568 24.3216C4.13747 23.9772 3.86824 23.708 3.5223 23.619C2.51516 23.359 1.81331 22.4515 1.81561 21.4145V9.73306C1.81331 8.69294 2.51516 7.78552 3.52306 7.52549C3.86824 7.43651 4.13747 7.16727 4.22645 6.82134C4.48571 5.8165 5.3916 5.11465 6.43095 5.11465H29.5706C30.6084 5.11465 31.5143 5.8165 31.7743 6.82287C31.8633 7.16727 32.1325 7.43651 32.4785 7.52549C33.4848 7.78552 34.1867 8.69294 34.1852 9.73076V21.4114C34.1867 22.4515 33.4848 23.359 32.4785 23.619L32.4693 23.6213C32.3304 23.6566 32.2016 23.7271 32.0972 23.8269C31.963 23.9549 31.8088 24.0547 31.6432 24.1229C31.4353 25.5121 30.87 26.7846 30.0431 27.8454H33.5454C34.8993 27.8408 35.9962 26.7447 36 25.3909V5.75437C35.9962 4.40052 34.8993 3.30364 33.5454 3.2998Z" fill="white"/>
<path d="M32.1141 8.93708C31.255 8.71617 30.5839 8.045 30.3629 7.18591C30.2694 6.82463 29.9441 6.57227 29.5706 6.57227H6.42943C6.05664 6.57227 5.73064 6.82463 5.63706 7.18591C5.41615 8.045 4.74575 8.71617 3.88665 8.93708C3.5246 9.03066 3.27224 9.35743 3.27301 9.73098V21.4147C3.27224 21.7883 3.5246 22.115 3.88665 22.2078C4.74575 22.4287 5.41615 23.0999 5.63706 23.959C5.73064 24.3203 6.05664 24.5726 6.42943 24.5726H15.8925C15.7828 24.0441 15.7245 23.4972 15.7245 22.9365C15.7245 18.5237 19.3143 14.9331 23.7272 14.9331H23.7295C25.8657 14.9362 27.8731 15.77 29.3834 17.2803C30.7549 18.6518 31.5688 20.4336 31.7084 22.3513C31.838 22.2914 31.9738 22.2431 32.1141 22.2078C32.4754 22.115 32.7285 21.7883 32.7278 21.4147V9.73098C32.7285 9.35743 32.4754 9.03066 32.1141 8.93708ZM15.5458 15.5728H8.18214C7.73034 15.5728 7.36369 15.2062 7.36369 14.7544C7.36369 14.3026 7.73034 13.936 8.18214 13.936H15.5458C15.9976 13.936 16.3635 14.3026 16.3635 14.7544C16.3635 15.2062 15.9976 15.5728 15.5458 15.5728ZM27.8186 12.2998H8.18214C7.73034 12.2998 7.36369 11.9332 7.36369 11.4814C7.36369 11.0296 7.73034 10.6637 8.18214 10.6637H27.8186C28.2704 10.6637 28.6363 11.0296 28.6363 11.4814C28.6363 11.9332 28.2704 12.2998 27.8186 12.2998Z" fill="white"/>
<path d="M20.4548 29.9912V32.7549C20.4571 33.2067 20.8253 33.571 21.2771 33.5687C21.4359 33.568 21.5908 33.5212 21.7228 33.4337L23.7271 32.0998L25.7314 33.4337C26.1088 33.6823 26.6158 33.5779 26.8651 33.2006C26.9525 33.0679 26.9993 32.9129 27.0001 32.7549V29.9912C24.939 31.0168 22.5159 31.0168 20.4548 29.9912Z" fill="white"/>
<path d="M23.7272 16.3906C20.1121 16.3906 17.1819 19.3215 17.1819 22.9359C17.1819 26.5502 20.1128 29.4811 23.7272 29.4811C27.3415 29.4811 30.2724 26.5502 30.2724 22.9359C30.2678 19.3231 27.34 16.3952 23.7272 16.3906ZM27.5724 22.5677L26.2799 23.8195L26.5906 25.5952C26.6596 26.0463 26.3505 26.4674 25.9002 26.5364C25.7277 26.5633 25.5512 26.5341 25.3963 26.4543L23.8093 25.6198L22.2222 26.4543C21.8218 26.6637 21.3271 26.5088 21.1177 26.1084C21.0348 25.9504 21.0065 25.7709 21.0356 25.5952L21.3386 23.8195L20.0461 22.5677C19.7247 22.2425 19.7286 21.7178 20.0538 21.3964C20.1765 21.2752 20.3338 21.1954 20.504 21.1686L22.2798 20.9147L23.0737 19.3031C23.3099 18.8966 23.8315 18.7585 24.238 18.9948C24.3661 19.0692 24.472 19.175 24.5464 19.3031L25.3403 20.9147L27.116 21.1686C27.5678 21.2407 27.8746 21.6656 27.8025 22.1174C27.7749 22.2877 27.6951 22.445 27.5747 22.5677H27.5724Z" fill="white"/>
</g>
<defs>
<clipPath id="clip0_320_4498">
<rect width="36" height="33" fill="white"/>
</clipPath>
</defs>
</svg>
