<svg width="18" height="18" viewBox="0 0 18 18" fill="none" xmlns="http://www.w3.org/2000/svg">
<g clip-path="url(#clip0_327_4781)">
<path d="M16.1316 6.4386H15.669L15.6933 4.7376C15.6904 4.63819 15.6521 4.54309 15.5853 4.4694L11.6109 0.1206C11.579 0.0841164 11.5399 0.0545846 11.4961 0.0338384C11.4523 0.0130921 11.4047 0.00157428 11.3562 0L3.0402 0C2.85375 0.00299345 2.67573 0.0782111 2.54362 0.209819C2.41151 0.341427 2.33561 0.519159 2.3319 0.7056V6.4386H1.8684C1.6119 6.4386 1.3644 6.5448 1.1844 6.7338C1.00075 6.92589 0.898794 7.18174 0.900005 7.4475V12.6945C0.900005 13.2507 1.3338 13.7025 1.8684 13.7025H2.3319V17.2935C2.33539 17.4804 2.41144 17.6586 2.54396 17.7905C2.67648 17.9223 2.85508 17.9975 3.042 18H14.9922C15.3657 18 15.6942 17.6832 15.6942 17.2944V13.7034H16.1325C16.6671 13.7034 17.1009 13.2507 17.1009 12.6936V7.4466C17.1009 7.1802 16.9992 6.9228 16.8174 6.7338C16.7292 6.64098 16.6231 6.56698 16.5056 6.51624C16.388 6.46551 16.2614 6.4391 16.1334 6.4386H16.1316ZM3.555 1.2402H9.8154V5.3595C9.81506 5.45225 9.85052 5.54156 9.9144 5.6088C9.94539 5.64138 9.98266 5.66735 10.024 5.68514C10.0653 5.70293 10.1097 5.71217 10.1547 5.7123H14.4378V6.4386H3.555V1.2402ZM3.555 16.7598V13.7025H14.4378V16.7598H3.555ZM11.0619 1.368L11.4084 1.7586L13.7304 4.3263L13.8591 4.482H11.4858C11.3058 4.482 11.1933 4.4523 11.1456 4.392C11.0979 4.3335 11.07 4.239 11.0619 4.1103V1.368ZM2.7 12.8088V7.4088H4.4262C5.0796 7.4088 5.5062 7.4358 5.7042 7.4898C6.0102 7.5708 6.2658 7.7472 6.4719 8.019C6.6771 8.2899 6.7806 8.64 6.7806 9.0702C6.7806 9.4014 6.7212 9.6804 6.6024 9.9072C6.4836 10.1322 6.3324 10.3095 6.1497 10.4382C5.9827 10.5601 5.79297 10.6473 5.5917 10.6947C5.3352 10.746 4.9635 10.7721 4.4766 10.7721H3.7755V12.8088H2.7ZM3.7755 8.3223V9.855H4.3641C4.788 9.855 5.0715 9.8262 5.2146 9.7704C5.35292 9.7182 5.4714 9.62397 5.5534 9.50097C5.63541 9.37796 5.67681 9.23235 5.6718 9.0846C5.67837 8.9068 5.61726 8.73312 5.5008 8.5986C5.38843 8.47173 5.23595 8.38723 5.0688 8.3592C4.941 8.3349 4.6827 8.3232 4.2948 8.3232H3.7755V8.3223ZM7.4115 7.4088H9.3771C9.8208 7.4088 10.1583 7.443 10.3914 7.5123C10.7037 7.605 10.971 7.7715 11.1942 8.0091C11.4165 8.2476 11.5866 8.5392 11.7027 8.8839C11.8197 9.2295 11.8773 9.6543 11.8773 10.1601C11.8773 10.6047 11.8233 10.9881 11.7135 11.3094C11.5803 11.7027 11.3895 12.0204 11.1429 12.2634C10.9566 12.4479 10.7046 12.5919 10.3869 12.6954C10.1502 12.771 9.8325 12.8088 9.4356 12.8088H7.4115V7.4088ZM8.487 8.3223V11.8989H9.2898C9.5904 11.8989 9.8073 11.8818 9.9405 11.8476C10.1151 11.8026 10.26 11.7288 10.3743 11.6226C10.4895 11.5173 10.584 11.3436 10.656 11.1015C10.7289 10.8594 10.7649 10.53 10.7649 10.1124C10.7649 9.6948 10.7289 9.3744 10.6569 9.1512C10.5997 8.95427 10.4946 8.7746 10.3509 8.6283C10.212 8.49865 10.0396 8.41043 9.8532 8.3736C9.7029 8.3394 9.4086 8.3223 8.9712 8.3223H8.487ZM12.5487 12.8088V7.4088H16.2V8.3223H13.6242V9.6003H15.8472V10.5138H13.6242V12.8088H12.5487Z" fill="#D30505"/>
</g>
<defs>
<clipPath id="clip0_327_4781">
<rect width="18" height="18" fill="white"/>
</clipPath>
</defs>
</svg>
