<svg width="50" height="50" viewBox="0 0 50 50" fill="none" xmlns="http://www.w3.org/2000/svg">
<rect width="50" height="50" rx="25" fill="#F28300" fill-opacity="0.15"/>
<path d="M22.0157 10C18.8195 10 16.2203 12.5998 16.2203 15.7953C16.2203 18.9909 18.8195 21.5888 22.0157 21.5888C25.2118 21.5888 27.811 18.989 27.811 15.7953C27.811 12.6017 25.2112 10 22.0157 10Z" fill="#F28300"/>
<path d="M23.4934 28.8155L27.4183 28.2046L28.6659 25.6118C26.8169 24.2072 24.5115 23.3726 22.0157 23.3726C15.9405 23.3726 11 28.3156 11 34.3883C11 35.5016 11.9084 36.4062 13.0211 36.4062H24.92L25.0001 35.9088L22.1279 33.1653C21.4231 32.492 21.1666 31.496 21.4584 30.5661C21.7503 29.6363 22.5301 28.9655 23.4934 28.8155Z" fill="#F28300"/>
<path d="M38.1151 32.0239C38.5992 31.5423 38.3212 30.7139 37.6442 30.6225L34.013 30.1321C33.7445 30.0955 33.5106 29.9297 33.3877 29.6876L31.7329 26.4184C31.4246 25.8088 30.5508 25.8176 30.2545 26.4335L28.6659 29.7356C28.548 29.9802 28.3179 30.151 28.05 30.1926L24.4296 30.7562C23.7544 30.8615 23.4928 31.6949 23.987 32.167L26.6366 34.6981C26.8327 34.8853 26.9241 35.1577 26.8812 35.4256L26.2981 39.0429C26.1897 39.7174 26.9014 40.2236 27.5028 39.8996L30.7286 38.1622C30.9675 38.0336 31.2544 38.0304 31.4958 38.1546L34.7557 39.8271C35.3634 40.1392 36.065 39.6184 35.9427 38.9464L35.2871 35.3418C35.2385 35.0751 35.3243 34.8009 35.5166 34.6099L38.1145 32.0258L38.1151 32.0239Z" fill="#F28300"/>
</svg>
