<svg width="18" height="18" viewBox="0 0 18 18" fill="none" xmlns="http://www.w3.org/2000/svg">
<path d="M10.4265 1.30566V2.9161C12.339 2.92679 14.5648 2.89641 16.4756 2.9251C16.8368 2.9251 16.8525 3.2446 16.857 3.5236C16.8874 6.86598 16.8497 10.3045 16.875 13.6486C16.8682 13.7802 16.8716 14.2674 16.8677 14.4057C16.8553 14.8687 16.6236 14.8889 16.1606 14.903C16.0864 14.903 15.8681 14.9064 15.7961 14.9097C14.0068 14.9007 12.2175 14.9047 10.4265 14.9047V16.6945L1.125 15.263V2.74116L10.4265 1.30566Z" fill="#D30505"/>
<path d="M10.4265 3.45215H16.3328V14.3646H10.4265V12.937H14.7206V12.2198H10.4265V11.3255H14.7206V10.61H10.4282C10.4282 10.259 10.4282 9.90852 10.4248 9.55809C10.7761 9.68483 11.1513 9.73166 11.523 9.69518C11.8947 9.65869 12.2536 9.53979 12.5736 9.34715C12.8997 9.13284 13.1699 8.84367 13.3616 8.50374C13.5532 8.16382 13.6609 7.783 13.6755 7.39302C12.888 7.3874 12.1044 7.38965 11.3209 7.38965C11.3209 6.61115 11.3299 5.83321 11.3046 5.0564C11.0109 5.11265 10.7179 5.17452 10.4259 5.23696V3.45271" fill="white"/>
<path d="M11.6809 4.68262C12.291 4.72085 12.8664 4.97977 13.2997 5.41108C13.7329 5.84238 13.9945 6.41659 14.0355 7.02655C13.248 7.03555 12.4644 7.03218 11.6792 7.03218V4.68262" fill="#D33922"/>
<path d="M3.99375 6.03306C4.96519 6.07975 6.1425 5.64831 6.948 6.37675C7.71919 7.31275 7.515 9.034 6.372 9.59369C5.95641 9.75826 5.50587 9.81477 5.0625 9.75794C5.0625 10.4577 5.05913 11.1574 5.0625 11.8566C4.70813 11.8263 4.35207 11.7959 3.99769 11.7672C3.98138 9.85469 3.978 7.94219 3.99769 6.02969" fill="white"/>
<path d="M5.05856 7.00121C5.41125 6.9849 5.84606 6.92078 6.08569 7.25153C6.1815 7.43163 6.23351 7.63178 6.23752 7.83574C6.24153 8.0397 6.19741 8.24174 6.10875 8.42546C5.90456 8.7939 5.44331 8.75846 5.08725 8.80121C5.04956 8.20159 5.0535 7.60253 5.05856 7.00121Z" fill="#D33922"/>
</svg>
