<svg width="18" height="18" viewBox="0 0 18 18" fill="none" xmlns="http://www.w3.org/2000/svg">
<path d="M17.7002 15.9907C15.7794 17.9115 12.8877 18.5262 10.4011 17.4505C9.8493 17.213 9.26258 16.9057 8.64792 16.5145C8.64792 16.5145 6.57345 15.4668 4.57581 13.4343C2.52229 11.4296 1.47457 9.36215 1.47457 9.36215C1.08342 8.74749 0.76911 8.16775 0.531628 7.61595C-0.55101 5.12938 0.0636493 2.22372 1.97747 0.302909C2.58515 -0.32572 3.57698 0.219091 3.57698 0.219091L6.9157 3.54384C7.69799 4.39598 6.93666 5.19923 6.93666 5.19923L4.89711 7.23878C5.11363 8.23061 7.42559 10.5775 7.42559 10.5775C7.42559 10.5775 9.77945 12.8964 10.7643 13.085L12.8039 11.0455C12.8039 11.0455 13.6071 10.2772 14.4592 11.0664L17.784 14.3912C17.784 14.3912 18.3218 15.383 17.7002 15.9907Z" fill="#1CBBB4"/>
</svg>
