<svg width="18" height="21" viewBox="0 0 18 21" fill="none" xmlns="http://www.w3.org/2000/svg">
<path d="M6 0H12V2H6V0ZM16.03 6.39L17.45 4.97C17.02 4.46 16.55 3.98 16.04 3.56L14.62 4.98C13.0273 3.69833 11.0443 2.99969 9 3C6.61305 3 4.32387 3.94821 2.63604 5.63604C0.948211 7.32387 0 9.61305 0 12C0 16.97 4.02 21 9 21C10.6943 21.0009 12.3544 20.5232 13.7891 19.622C15.2238 18.7207 16.3748 17.4325 17.1094 15.9057C17.8441 14.379 18.1325 12.6758 17.9415 10.9923C17.7506 9.30874 17.088 7.71341 16.03 6.39ZM10 13H8V7H10V13Z" fill="#1CBBB4"/>
</svg>
